<svg width="15" height="18" viewBox="0 0 15 18" fill="none" xmlns="http://www.w3.org/2000/svg">
<g id="Vector">
<path d="M7.41067 9.91968C8.92946 9.91968 10.1607 8.68847 10.1607 7.16968C10.1607 5.6509 8.92946 4.41968 7.41067 4.41968C5.89189 4.41968 4.66067 5.6509 4.66067 7.16968C4.66067 8.68847 5.89189 9.91968 7.41067 9.91968Z" stroke="#2F2F38" stroke-linecap="round" stroke-linejoin="round"/>
<path d="M12.7273 10.7795H12.7173C13.3789 9.80965 13.7618 8.67682 13.8243 7.50439C13.8867 6.33197 13.6262 5.16489 13.0713 4.13024C12.5163 3.0956 11.6881 2.23305 10.6769 1.63651C9.66561 1.03998 8.51007 0.732342 7.33608 0.747088C6.16208 0.761835 5.01464 1.0984 4.01869 1.72015C3.02274 2.34189 2.21647 3.22497 1.68767 4.27323C1.15887 5.32149 0.927818 6.49475 1.01967 7.66523C1.11152 8.83572 1.52275 9.95857 2.20859 10.9115H2.19392L2.32317 11.0683C2.41484 11.1847 2.50651 11.2984 2.59817 11.4084L7.41067 17.253L12.1132 11.5257C12.2901 11.3344 12.4554 11.1327 12.6082 10.9216L12.7273 10.7795Z" stroke="#2F2F38" stroke-linecap="round" stroke-linejoin="round"/>
</g>
</svg>
