<svg width="22" height="22" viewBox="0 0 22 22" fill="none" xmlns="http://www.w3.org/2000/svg">
<g id="map-location">
<g id="Vector">
<path d="M11.0005 11.9168C12.5193 11.9168 13.7505 10.6855 13.7505 9.16675C13.7505 7.64797 12.5193 6.41675 11.0005 6.41675C9.48173 6.41675 8.25052 7.64797 8.25052 9.16675C8.25052 10.6855 9.48173 11.9168 11.0005 11.9168Z" stroke="#2F2F38" stroke-linecap="round" stroke-linejoin="round"/>
<path d="M16.3172 12.7766H16.3071C16.9688 11.8067 17.3517 10.6739 17.4141 9.50146C17.4765 8.32904 17.2161 7.16196 16.6611 6.12731C16.1062 5.09267 15.278 4.23012 14.2667 3.63358C13.2554 3.03705 12.0999 2.72941 10.9259 2.74416C9.75193 2.75891 8.60448 3.09548 7.60853 3.71722C6.61259 4.33896 5.80631 5.22204 5.27752 6.2703C4.74872 7.31856 4.51766 8.49182 4.60951 9.6623C4.70136 10.8328 5.1126 11.9556 5.79843 12.9086H5.78377L5.91302 13.0653C6.00468 13.1818 6.09635 13.2954 6.18802 13.4054L11.0005 19.2501L15.703 13.5228C15.8799 13.3315 16.0452 13.1297 16.198 12.9187L16.3172 12.7766Z" stroke="#2F2F38" stroke-linecap="round" stroke-linejoin="round"/>
</g>
</g>
</svg>
