<svg width="24" height="24" viewBox="0 0 24 24" fill="none" xmlns="http://www.w3.org/2000/svg">
<g id="phone">
<path id="Vector" d="M19.3451 15.1682L17.9451 13.7682C17.5736 13.3972 17.0701 13.1888 16.5451 13.1888C16.0201 13.1888 15.5165 13.3972 15.1451 13.7682L14.4451 14.4682C14.0737 14.8395 13.5702 15.0481 13.0451 15.0481C12.52 15.0481 12.0164 14.8395 11.6451 14.4682L9.54506 12.3682C9.17378 11.9969 8.96521 11.4933 8.96521 10.9682C8.96521 10.4431 9.17378 9.93953 9.54506 9.56822L10.2451 8.86822C10.6161 8.49677 10.8245 7.99323 10.8245 7.46822C10.8245 6.9432 10.6161 6.43966 10.2451 6.06822L8.84506 4.66822C8.67348 4.46385 8.45924 4.29953 8.21738 4.18679C7.97552 4.07405 7.71191 4.01563 7.44506 4.01562C7.17822 4.01563 6.91461 4.07405 6.67275 4.18679C6.43089 4.29953 6.21664 4.46385 6.04506 4.66822C2.36306 8.32322 4.10106 12.5422 7.78106 16.2202C11.4611 19.8982 15.6811 21.6382 19.3451 17.9722C19.5501 17.8006 19.7151 17.5862 19.8282 17.3439C19.9414 17.1017 20 16.8376 20 16.5702C20 16.3028 19.9414 16.0387 19.8282 15.7965C19.7151 15.5543 19.5501 15.3398 19.3451 15.1682Z" stroke="#604EF8" stroke-width="2" stroke-linecap="round" stroke-linejoin="round"/>
</g>
</svg>
