<svg width="16" height="10" viewBox="0 0 16 10" fill="none" xmlns="http://www.w3.org/2000/svg">
<path id="Vector" d="M1.70685 3.02302L7.29285 8.31694C7.48038 8.49461 7.73468 8.59442 7.99985 8.59442C8.26501 8.59442 8.51932 8.49461 8.70685 8.31694L14.2928 3.02302C14.4327 2.89048 14.5279 2.72163 14.5664 2.53782C14.605 2.35401 14.5852 2.16349 14.5095 1.99034C14.4339 1.81719 14.3057 1.66919 14.1413 1.56506C13.9769 1.46092 13.7836 1.40531 13.5858 1.40527H2.41385C2.2161 1.40531 2.0228 1.46092 1.85839 1.56506C1.69398 1.66919 1.56584 1.81719 1.49017 1.99034C1.4145 2.16349 1.3947 2.35401 1.43327 2.53782C1.47183 2.72163 1.56704 2.89048 1.70685 3.02302Z" fill="#8377E9" stroke="#8377E9" stroke-width="2" stroke-linecap="round" stroke-linejoin="round"/>
</svg>
