<svg width="20" height="20" viewBox="0 0 20 20" fill="none" xmlns="http://www.w3.org/2000/svg">
<path id="Vector" d="M11.905 1.1582L15.633 5.8422M18 9.8422H13C12.4696 9.8422 11.9609 10.0529 11.5858 10.428C11.2107 10.8031 11 11.3118 11 11.8422V12.8422C11 13.3726 11.2107 13.8813 11.5858 14.2564C11.9609 14.6315 12.4696 14.8422 13 14.8422H18M18 9.8422C18.2652 9.8422 18.5196 9.94756 18.7071 10.1351C18.8946 10.3226 19 10.577 19 10.8422V13.8422C19 14.1074 18.8946 14.3618 18.7071 14.5493C18.5196 14.7368 18.2652 14.8422 18 14.8422M18 9.8422V6.8422C18 6.57699 17.8946 6.32263 17.7071 6.1351C17.5196 5.94756 17.2652 5.8422 17 5.8422H2C1.73478 5.8422 1.48043 5.94756 1.29289 6.1351C1.10536 6.32263 1 6.57699 1 6.8422V17.8422C1 18.1074 1.10536 18.3618 1.29289 18.5493C1.48043 18.7368 1.73478 18.8422 2 18.8422H17C17.2652 18.8422 17.5196 18.7368 17.7071 18.5493C17.8946 18.3618 18 18.1074 18 17.8422V14.8422M11.633 5.8422L7.905 1.1582L2.352 5.8422H11.633Z" stroke="#604EF8" stroke-width="2" stroke-linecap="round" stroke-linejoin="round"/>
</svg>
